<?xml version="1.0" encoding="utf-8"?>
<!-- Generator: Adobe Illustrator 21.0.0, SVG Export Plug-In . SVG Version: 6.00 Build 0)  -->
<!DOCTYPE svg PUBLIC "-//W3C//DTD SVG 1.1//EN" "http://www.w3.org/Graphics/SVG/1.1/DTD/svg11.dtd">
<svg version="1.1" id="Слой_1" xmlns="http://www.w3.org/2000/svg" xmlns:xlink="http://www.w3.org/1999/xlink" x="0px" y="0px"
	 viewBox="0 0 64 64" style="enable-background:new 0 0 64 64;" xml:space="preserve">
<path d="M41.3,33.7h3.1c0.4,0,0.7-0.3,0.7-0.7v-4.9c0-0.4-0.3-0.7-0.7-0.7h-3.1c-0.4,0-0.7,0.3-0.7,0.7V33
	C40.6,33.4,40.9,33.7,41.3,33.7z M42,28.8h1.7v3.5H42V28.8z M34.7,33.7h2.9c0.4,0,0.7-0.3,0.7-0.7v-4.9c0-0.4-0.3-0.7-0.7-0.7h-3.1
	c-0.4,0-0.7,0.3-0.7,0.7V33C34,33.4,34.3,33.7,34.7,33.7z M35.4,28.8h1.7v3.5h-1.7V28.8z M41.3,43.2h3.1c0.4,0,0.7-0.3,0.7-0.7v-4.9
	c0-0.4-0.3-0.7-0.7-0.7h-3.1c-0.4,0-0.7,0.3-0.7,0.7v4.9C40.6,42.9,40.9,43.2,41.3,43.2z M42,38.3h1.7v3.5H42V38.3z M34.7,43.2h2.9
	c0.4,0,0.7-0.3,0.7-0.7v-4.9c0-0.4-0.3-0.7-0.7-0.7h-3.1c-0.4,0-0.7,0.3-0.7,0.7v4.9C34,42.9,34.3,43.2,34.7,43.2z M35.4,38.3h1.7
	v3.5h-1.7V38.3z M41.3,52.4h3.1c0.4,0,0.7-0.3,0.7-0.7v-4.9c0-0.4-0.3-0.7-0.7-0.7h-3.1c-0.4,0-0.7,0.3-0.7,0.7v4.9
	C40.6,52.1,40.9,52.4,41.3,52.4z M42,47.6h1.7v3.5H42V47.6z M34.7,52.4h2.9c0.4,0,0.7-0.3,0.7-0.7v-4.9c0-0.4-0.3-0.7-0.7-0.7h-3.1
	c-0.4,0-0.7,0.3-0.7,0.7v4.9C34,52.1,34.3,52.4,34.7,52.4z M35.4,47.6h1.7v3.5h-1.7V47.6z M41.3,24.1h3.1c0.4,0,0.7-0.3,0.7-0.7
	v-4.9c0-0.4-0.3-0.7-0.7-0.7h-3.1c-0.4,0-0.7,0.3-0.7,0.7v4.9C40.6,23.9,40.9,24.1,41.3,24.1z M42,19.2h1.7v3.5H42V19.2z M34.7,24.1
	h2.9c0.4,0,0.7-0.3,0.7-0.7v-4.9c0-0.4-0.3-0.7-0.7-0.7h-3.1c-0.4,0-0.7,0.3-0.7,0.7v4.9C34,23.9,34.3,24.1,34.7,24.1z M35.4,19.2
	h1.7v3.5h-1.7V19.2z M59.4,57h-4.1V54c2-0.3,3.6-2.1,3.6-4.2c0-1.7-1-3.1-2.2-3.8c0.4-0.4,0.6-1,0.6-1.7c0-1.4-1.1-2.5-2.5-2.5
	c-1.4,0-2.5,1.1-2.5,2.5c0,0.6,0.3,1.3,0.6,1.7c-1.4,0.7-2.2,2.1-2.2,3.8c0,2.1,1.5,3.8,3.6,4.2V57h-5.3V14.9l0,0
	c0.4,0,0.7-0.3,0.7-0.7V10c0-0.4-0.3-0.7-0.7-0.7h-5.5V6.3c0-0.4-0.3-0.7-0.7-0.7h-6.3c-0.4,0-0.7,0.3-0.7,0.7v3.1h-5.6
	c-0.4,0-0.7,0.3-0.7,0.7v4.1c0,0.4,0.3,0.7,0.7,0.7l0,0v5.9h-9v-3.4c0-0.4-0.3-0.7-0.7-0.7h-3.2c-0.4,0-0.7,0.3-0.7,0.7v3.4h-1.7
	c-0.4,0-0.7,0.3-0.7,0.7v4.1c0,0.4,0.3,0.7,0.7,0.7h0.3V57h-4.6V54c2-0.3,3.6-2.1,3.6-4.2c0-1.7-1-3.1-2.2-3.8
	c0.4-0.4,0.6-1,0.6-1.5c0-1.4-1.1-2.5-2.5-2.5s-2.5,1.1-2.5,2.5c0,0.6,0.3,1.3,0.6,1.7c-1.4,0.7-2.2,2.1-2.2,3.8
	c0,2.1,1.5,3.8,3.6,4.2v2.9H4.7C4.3,57,4,57.3,4,57.7s0.3,0.7,0.7,0.7h54.6c0.4,0,0.7-0.3,0.7-0.7S59.9,57,59.4,57z M53.4,44.5
	c0-0.7,0.6-1.1,1.1-1.1s1.1,0.6,1.1,1.1c0,0.7-0.6,1.1-1.1,1.1S53.4,45.1,53.4,44.5z M51.7,49.8c0-1.5,1.3-2.9,2.9-2.9
	c1.7,0,2.9,1.3,2.9,2.9s-1.3,2.9-2.9,2.9C53,52.8,51.7,51.5,51.7,49.8z M8.6,44.5c0-0.7,0.6-1.1,1.1-1.1c0.6,0,1.3,0.6,1.3,1.1
	c0,0.7-0.6,1.1-1.1,1.1S8.6,45.1,8.6,44.5z M6.9,49.8c0-1.5,1.3-2.9,2.9-2.9s2.9,1.3,2.9,2.9s-1.3,2.9-2.9,2.9S6.9,51.5,6.9,49.8z
	 M37,6.9h4.9v2.4H37V6.9z M30.7,10.7h17.5v2.8H30.7V10.7z M47.4,14.9v42.2H31.5V14.9H47.4z M18,18.1h1.8v2.7H18V18.1z M15.5,22.2H30
	V25H15.5V22.2z M16.6,26.2h13.5V57H27V44.5c0-0.4-0.3-0.7-0.7-0.7h-6c-0.4,0-0.7,0.3-0.7,0.7V57h-2.9V26.2z M25.6,57H21V45.2h4.6V57
	z"/>
</svg>
