<?xml version="1.0" encoding="utf-8"?>
<!-- Generator: Adobe Illustrator 21.0.0, SVG Export Plug-In . SVG Version: 6.00 Build 0)  -->
<!DOCTYPE svg PUBLIC "-//W3C//DTD SVG 1.1//EN" "http://www.w3.org/Graphics/SVG/1.1/DTD/svg11.dtd">
<svg version="1.1" id="Слой_1" xmlns="http://www.w3.org/2000/svg" xmlns:xlink="http://www.w3.org/1999/xlink" x="0px" y="0px"
	 viewBox="0 0 64 64" style="enable-background:new 0 0 64 64;" xml:space="preserve">
<path d="M15.5,30.5c-0.4,0-0.9-0.4-0.9-0.9v-5.4c0-0.3,0.1-0.4,0.3-0.6c0.1-0.1,0.4-0.3,0.6-0.3h5.4c0.4,0,0.9,0.4,0.9,0.9v5.4
	c0,0.4-0.4,0.9-0.9,0.9L15.5,30.5L15.5,30.5z M16.3,28.8H20v-3.7h-3.7V28.8z M8.4,59.9c-0.4,0-0.9-0.4-0.9-0.9V20.2l-1.8,3.1
	c-0.1,0.3-0.4,0.4-0.7,0.4c-0.1,0-0.3,0-0.4-0.1c-0.1-0.1-0.3-0.3-0.4-0.6c0-0.3,0-0.4,0.1-0.7L14.6,4.4C14.8,4.1,15.1,4,15.3,4
	c0.1,0,0.3,0,0.4,0.1l30.3,17.4v-5.1c0-0.4,0.4-0.9,0.9-0.9h8.8c0.4,0,0.9,0.4,0.9,0.9v11.2l2.8,1.7c0.1,0.1,0.3,0.3,0.4,0.6
	c0,0.3,0,0.4-0.1,0.7c-0.1,0.3-0.4,0.4-0.7,0.4c-0.1,0-0.3,0-0.4-0.1l-2-1.1v29.3c0,0.4-0.4,0.9-0.9,0.9H8.4V59.9z M51.1,43.6
	c0.4,0,0.9,0.4,0.9,0.9V58H55V28.5l-22-12.6v16.6h3.8c0.4,0,0.9,0.4,0.9,0.9c0,0.4-0.4,0.9-0.9,0.9h-9.4c-0.4,0-0.9-0.4-0.9-0.9
	c0-0.4,0.4-0.9,0.9-0.9h3.8V14.9L15.8,6L9.4,17v41h4.5V43.4c0-0.4,0.4-0.9,0.9-0.9h7.9c0.4,0,0.9,0.4,0.9,0.9V58h11.1V44.4
	c0-0.4,0.4-0.9,0.9-0.9H51.1z M36.3,58h13.8v-3.1H36.3V58z M15.6,58h6.2V44.3h-6.2V58z M36.3,53.2h13.8v-3.1H36.3V53.2z M36.3,48.4
	h13.8v-3.1H36.3V48.4z M47.8,22.6l7.1,4.1v-9.2h-7.1V22.6z"/>
</svg>
