<?xml version="1.0" encoding="utf-8"?>
<!-- Generator: Adobe Illustrator 21.0.0, SVG Export Plug-In . SVG Version: 6.00 Build 0)  -->
<!DOCTYPE svg PUBLIC "-//W3C//DTD SVG 1.1//EN" "http://www.w3.org/Graphics/SVG/1.1/DTD/svg11.dtd">
<svg version="1.1" id="Слой_1" xmlns="http://www.w3.org/2000/svg" xmlns:xlink="http://www.w3.org/1999/xlink" x="0px" y="0px"
	 viewBox="0 0 64 64" style="enable-background:new 0 0 64 64;" xml:space="preserve">
<g>
	<path d="M50.8,15.9H13.2c-2.2,0-3.9,1.8-3.9,3.9v24.3c0,2.2,1.8,3.9,3.9,3.9h37.7c2.2,0,3.9-1.8,3.9-3.9V19.9
		C54.8,17.7,53,15.9,50.8,15.9z M32,34L13.6,18.9h36.8L32,34z M25,32.2l-12.8,11V21.7L25,32.2z M27.4,34.1l4.6,3.8l4.5-3.7
		l12.7,10.8H14.6L27.4,34.1z M38.9,32.3l12.9-10.6v21.6L38.9,32.3z"/>
	<path d="M50.8,15.9H13.2c-2.2,0-3.9,1.8-3.9,3.9v24.3c0,2.2,1.8,3.9,3.9,3.9h37.7c2.2,0,3.9-1.8,3.9-3.9V19.9
		C54.8,17.7,53,15.9,50.8,15.9z M32,34L13.6,18.9h36.8L32,34z M25,32.2l-12.8,11V21.7L25,32.2z M27.4,34.1l4.6,3.8l4.5-3.7
		l12.7,10.8H14.6L27.4,34.1z M38.9,32.3l12.9-10.6v21.6L38.9,32.3z"/>
</g>
</svg>
