<?xml version="1.0" encoding="utf-8"?>
<!-- Generator: Adobe Illustrator 21.0.0, SVG Export Plug-In . SVG Version: 6.00 Build 0)  -->
<!DOCTYPE svg PUBLIC "-//W3C//DTD SVG 1.1//EN" "http://www.w3.org/Graphics/SVG/1.1/DTD/svg11.dtd">
<svg version="1.1" id="Слой_1" xmlns="http://www.w3.org/2000/svg" xmlns:xlink="http://www.w3.org/1999/xlink" x="0px" y="0px"
	 viewBox="0 0 64 64" style="enable-background:new 0 0 64 64;" xml:space="preserve">
<path d="M54.8,15.3c-2.2-2.7-4.9-5-7.9-6.8c-3.1-1.8-6.6-3.1-10.3-3.9c-7.4-1.5-14.8-0.4-20.9,2.9C9.7,10.9,5.6,16.2,4.4,22.5
	c-1.8,9.2,2.8,18.8,11.8,24.4L13.6,60l13.9-8.7c7.4,1.5,14.8,0.4,20.8-2.9c6.1-3.4,10.1-8.7,11.3-14.9
	C60.8,27.2,59.2,20.8,54.8,15.3z M38,21.4c0,3.5-2.9,6.4-6.4,6.4c-3.5,0-6.4-2.9-6.4-6.4c0-3.5,2.9-6.4,6.4-6.4
	C35.1,15,38,17.9,38,21.4z M21.1,40.9c-0.3-0.3-0.4-0.8-0.4-1.2C21.1,33.6,25.8,29,31.5,29s10.4,4.6,10.8,10.8
	c0,0.4-0.1,0.9-0.4,1.2c-0.3,0.3-0.7,0.5-1.1,0.5H22.3C21.8,41.4,21.4,41.3,21.1,40.9z"/>
</svg>
