<?xml version="1.0" encoding="utf-8"?>
<!-- Generator: Adobe Illustrator 21.0.0, SVG Export Plug-In . SVG Version: 6.00 Build 0)  -->
<!DOCTYPE svg PUBLIC "-//W3C//DTD SVG 1.1//EN" "http://www.w3.org/Graphics/SVG/1.1/DTD/svg11.dtd">
<svg version="1.1" id="Слой_1" xmlns="http://www.w3.org/2000/svg" xmlns:xlink="http://www.w3.org/1999/xlink" x="0px" y="0px"
	 viewBox="0 0 64 64" style="enable-background:new 0 0 64 64;" xml:space="preserve">
<path d="M31.6,27.8c-3.5,0-6.4-2.9-6.4-6.4S28,15,31.6,15s6.4,2.9,6.4,6.4S35.1,27.8,31.6,27.8z M31.6,16.6c-2.6,0-4.8,2.2-4.8,4.8
	s2.2,4.8,4.8,4.8c2.6,0,4.8-2.2,4.8-4.8S34.2,16.6,31.6,16.6z M22.3,41.4c-0.4,0-0.8-0.2-1.2-0.5c-0.3-0.3-0.4-0.7-0.4-1.2
	C21.1,33.6,25.8,29,31.5,29c5.7,0,10.4,4.6,10.8,10.8c0,0.4-0.1,0.9-0.4,1.2c-0.3,0.3-0.7,0.5-1.1,0.5H22.3z M40.8,39.8l0-0.4
	c-0.5-5.1-4.4-8.8-9.2-8.8c-4.7,0-8.6,3.8-9.2,8.8l0,0.4H40.8z M13.6,60l2.6-13.1c-9-5.6-13.7-15.2-11.8-24.4
	c1.2-6.3,5.3-11.6,11.3-14.9c6-3.3,13.5-4.4,20.9-2.9l0,0c7.4,1.5,13.9,5.3,18.2,10.7c4.3,5.4,6,11.8,4.8,18.1
	c-1.2,6.3-5.3,11.6-11.3,14.9c-6,3.3-13.4,4.4-20.8,2.9L13.6,60z M29.9,5.6C18,5.6,8,12.4,6,22.8c-1.7,8.7,2.8,17.8,11.6,23l0.5,0.3
	l-2.1,10.6l11.3-7.1l0.5,0.1c14.6,2.9,27.9-4.4,30.3-16.6c1.2-5.8-0.4-11.8-4.5-16.8c-4.1-5.1-10.2-8.7-17.3-10.1
	C34.2,5.8,32,5.6,29.9,5.6z"/>
</svg>
