<?xml version="1.0" encoding="utf-8"?>
<!-- Generator: Adobe Illustrator 21.0.0, SVG Export Plug-In . SVG Version: 6.00 Build 0)  -->
<!DOCTYPE svg PUBLIC "-//W3C//DTD SVG 1.1//EN" "http://www.w3.org/Graphics/SVG/1.1/DTD/svg11.dtd">
<svg version="1.1" id="Слой_1" xmlns="http://www.w3.org/2000/svg" xmlns:xlink="http://www.w3.org/1999/xlink" x="0px" y="0px"
	 viewBox="0 0 64 64" style="enable-background:new 0 0 64 64;" xml:space="preserve">
<path d="M57.8,32c0,14.1-11.6,25.8-25.8,25.8S6.2,46.1,6.2,32S17.9,6.2,32,6.2S57.8,17.9,57.8,32 M60,32C60,16.5,47.5,4,32,4
	S4,16.5,4,32s12.5,28,28,28S60,47.5,60,32L60,32z M35.6,30.4l-5.9-5.2c-0.8-0.7-1.8,0.2-1.8,1.6L30,32l-2.1,5.2c0,1.4,1,2.3,1.8,1.6
	l5.9-5.2C36.4,32.9,36.4,31.1,35.6,30.4z"/>
</svg>
