<?xml version="1.0" encoding="utf-8"?>
<!-- Generator: Adobe Illustrator 21.0.0, SVG Export Plug-In . SVG Version: 6.00 Build 0)  -->
<!DOCTYPE svg PUBLIC "-//W3C//DTD SVG 1.1//EN" "http://www.w3.org/Graphics/SVG/1.1/DTD/svg11.dtd">
<svg version="1.1" id="Слой_1" xmlns="http://www.w3.org/2000/svg" xmlns:xlink="http://www.w3.org/1999/xlink" x="0px" y="0px"
	 viewBox="0 0 64 64" style="enable-background:new 0 0 64 64;" xml:space="preserve">
<path d="M41.8,54c-0.5,0-1-0.1-1.4-0.2c-0.5-0.1-12.5-3.3-19.8-12.9c-7.3-9.5-7.2-21.9-7.2-22.5c0-1.5,0.8-3.4,1.9-4.4l3.3-3.1
	c0.6-0.6,1.4-0.9,2.3-0.9c1,0,2,0.5,2.6,1.3l5.3,6.9c0.6,0.7,0.8,1.7,0.6,2.6c-0.2,0.9-0.7,1.7-1.5,2.2L24,25.4
	c-0.5,0.3-0.9,1.2-0.9,1.7c0,0,0.3,3.8,4.1,8.8c3.8,4.9,7.3,6.2,7.4,6.2c0.1,0,0.2,0.1,0.5,0.1c0.6,0,1.2-0.2,1.4-0.5l3.3-3
	c0.6-0.6,1.4-0.9,2.2-0.9c1,0,2,0.5,2.6,1.3l5.3,6.9c0.6,0.8,0.8,1.7,0.6,2.6c-0.2,0.9-0.7,1.7-1.5,2.2l-3.9,2.3
	C44.3,53.7,43,54,41.8,54z M20.8,13c-0.1,0-0.2,0.1-0.2,0.1l-3.3,3.1c-0.5,0.5-1,1.6-1,2.3c0,0.1,0,11.9,6.6,20.6
	c6.7,8.7,18,11.7,18.2,11.8c0.6,0.2,1.9,0,2.5-0.4l3.9-2.3c0.1,0,0.1-0.1,0.1-0.2c0-0.1,0-0.2-0.1-0.2L42.3,41
	c-0.2-0.3-0.3-0.2-0.5,0l-3.3,3c-1.2,1.1-3.3,1.5-4.8,1c-0.2-0.1-4.4-1.5-8.8-7.2c-4.4-5.8-4.7-10.2-4.7-10.4
	c-0.1-1.6,0.9-3.5,2.3-4.4l3.8-2.4c0.1-0.1,0.1-0.2,0.2-0.2c0-0.1,0-0.2-0.1-0.3L21,13.1C21,13.1,20.9,13,20.8,13z"/>
</svg>
