<?xml version="1.0" encoding="utf-8"?>
<!-- Generator: Adobe Illustrator 21.0.0, SVG Export Plug-In . SVG Version: 6.00 Build 0)  -->
<!DOCTYPE svg PUBLIC "-//W3C//DTD SVG 1.1//EN" "http://www.w3.org/Graphics/SVG/1.1/DTD/svg11.dtd">
<svg version="1.1" id="Слой_1" xmlns="http://www.w3.org/2000/svg" xmlns:xlink="http://www.w3.org/1999/xlink" x="0px" y="0px"
	 viewBox="0 0 64 64" style="enable-background:new 0 0 64 64;" xml:space="preserve">
<path d="M48.5,33.1c0-0.4,0-0.8,0-1.1c0-0.4,0-0.8-0.1-1.3l4.8-5.3l-5.2-8.9l-7,1.9c-0.6-0.4-1.2-0.8-1.9-1.1l-1.8-7H27.1l-2.3,7.2
	c-0.6,0.3-1.1,0.6-1.7,1l-7.2-2l-5.2,8.9l5.2,5.7c0,0.3,0,0.6,0,0.9c0,0.3,0,0.5,0,0.8l-5.4,5.3l5.2,8.9l7.4-1.6
	c0.5,0.4,1.1,0.7,1.7,1l2.3,7.2h10.3l1.9-7c0.7-0.3,1.3-0.7,2-1.1l7.1,1.5l5.2-8.9L48.5,33.1z M46.8,43.7l-6.2-1.4L40,42.7
	c-0.8,0.6-1.7,1.1-2.6,1.5l-0.7,0.3l-1.7,6.2h-5.8l-2-6.3l-0.6-0.3c-0.8-0.4-1.6-0.9-2.4-1.4l-0.5-0.4l-6.6,1.4l-2.9-5L19,34
	L19,33.3c0-0.4-0.1-0.9-0.1-1.3c0-0.4,0-0.8,0.1-1.3L19,30l-4.6-5l2.9-5l6.4,1.8l0.6-0.4c0.7-0.5,1.5-1,2.3-1.4l0.6-0.3l2-6.3h5.8
	l1.6,6.1l0.7,0.3c0.9,0.4,1.7,0.9,2.6,1.5l0.6,0.4l6.1-1.6l2.9,5l-4.2,4.6l0.1,0.7c0.1,0.6,0.1,1.2,0.1,1.6c0,0.5,0,1-0.1,1.5
	l-0.1,0.7l4.4,4.4L46.8,43.7z M32,24.5c-4.1,0-7.5,3.3-7.5,7.5c0,4.1,3.3,7.5,7.5,7.5c4.1,0,7.5-3.3,7.5-7.5
	C39.5,27.9,36.1,24.5,32,24.5z M32,36.5c-2.5,0-4.5-2-4.5-4.5c0-2.5,2-4.5,4.5-4.5c2.5,0,4.5,2,4.5,4.5C36.5,34.5,34.5,36.5,32,36.5
	z"/>
</svg>
