<?xml version="1.0" encoding="utf-8"?>
<!-- Generator: Adobe Illustrator 21.0.0, SVG Export Plug-In . SVG Version: 6.00 Build 0)  -->
<!DOCTYPE svg PUBLIC "-//W3C//DTD SVG 1.1//EN" "http://www.w3.org/Graphics/SVG/1.1/DTD/svg11.dtd">
<svg version="1.1" id="Слой_1" xmlns="http://www.w3.org/2000/svg" xmlns:xlink="http://www.w3.org/1999/xlink" x="0px" y="0px"
	 viewBox="0 0 64 64" style="enable-background:new 0 0 64 64;" xml:space="preserve">
<path d="M10.6,64.5l3-15.3C3.2,42.7-2.1,31.6,0,20.9C1.5,13.7,6.1,7.5,13.2,3.7c7-3.9,15.6-5.1,24.2-3.4l0,0
	C55.3,3.9,67,18.5,64,33.6c-3,15.1-19.3,24.2-37.2,20.7L10.6,64.5z M29.7,1.5c-5.6,0-11,1.3-15.6,3.9C7.6,9,3.3,14.7,2,21.3
	C0,31.4,5.2,41.8,15.3,47.9l0.6,0.4l-2.4,12.1l12.9-8.1l0.6,0.1c16.8,3.3,32.2-5,35-19.1c2.8-14-8.2-27.7-25-31l0,0
	C34.5,1.8,32.1,1.5,29.7,1.5z"/>
</svg>
